<svg version="1.1" id="Layer_1" xmlns="http://www.w3.org/2000/svg" xmlns:xlink="http://www.w3.org/1999/xlink" x="0px" y="0px"
	 width="100%" viewBox="0 0 2427 1869" enable-background="new 0 0 2427 1869" xml:space="preserve">
<path fill="none" opacity="1.000000" stroke="none" 
	d="
M2.547165,1372.540527 
	C2.000000,915.473083 2.000000,458.946198 2.000000,2.000000 
	C497.375031,2.000000 992.750183,2.000000 1489.062744,2.000000 
	C1493.255371,4.649476 1494.438965,7.054839 1490.351685,10.357995 
	C1486.245117,13.676755 1482.405029,17.400866 1479.195068,21.678387 
	C1467.584229,37.150421 1468.803955,59.260826 1482.035645,72.973587 
	C1495.031738,86.442261 1515.624023,88.206406 1531.463623,76.743149 
	C1528.699707,74.045204 1525.178589,75.108521 1522.249146,74.550812 
	C1494.174805,69.205994 1478.607300,42.307854 1488.055298,15.931590 
	C1490.436646,9.283195 1495.081421,5.694695 1501.449463,2.422918 
	C1811.215332,2.000000 2120.430664,2.000000 2430.000000,2.000000 
	C2430.000000,456.708405 2430.000000,911.416870 2430.000000,1367.062744 
	C2427.864014,1369.993774 2425.444580,1373.344971 2422.714111,1369.606567 
	C2416.078125,1360.520630 2408.319336,1363.526001 2400.382812,1366.798096 
	C2364.641846,1381.534058 2328.769775,1395.948120 2292.959229,1410.513672 
	C2150.948975,1468.275024 2008.973633,1526.121948 1866.959717,1583.874512 
	C1756.745117,1628.695190 1646.524658,1673.502441 1536.373413,1718.478638 
	C1436.096069,1759.423340 1335.590576,1799.811646 1235.568237,1841.373657 
	C1222.584595,1846.768799 1211.513550,1846.742798 1198.480713,1841.415161 
	C1057.189331,1783.657349 915.825500,1726.074951 774.408691,1668.623413 
	C663.252441,1623.465454 552.125854,1578.232666 441.039490,1532.902954 
	C304.959717,1477.374390 168.735382,1422.201050 32.721252,1366.511719 
	C20.394787,1361.464844 18.995125,1361.765259 10.226495,1372.269897 
	C7.875501,1375.086304 5.802610,1375.682861 2.547165,1372.540527 
z"/>
<path fill="none" opacity="1.000000" stroke="none" 
	d="
M1210.544678,1871.452026 
	C807.540405,1872.000000 405.080811,1872.000000 2.000000,1872.000000 
	C2.000000,1707.958740 2.000000,1543.916626 2.000000,1378.937256 
	C6.751223,1372.465820 11.889413,1376.037720 16.526331,1377.815063 
	C44.204391,1388.423462 71.521790,1399.941040 98.965515,1411.134521 
	C173.591217,1441.572266 248.278336,1471.858765 322.915649,1502.267700 
	C456.460602,1556.676880 590.040222,1611.000977 723.604126,1665.363403 
	C834.033875,1710.309814 944.473694,1755.232300 1054.864990,1800.273193 
	C1105.126831,1820.780396 1155.561890,1840.866333 1205.572876,1861.982056 
	C1208.913818,1863.392700 1216.507690,1863.513306 1210.544678,1871.452026 
z"/>
<path fill="none" opacity="1.000000" stroke="none" 
	d="
M2429.455078,1379.455444 
	C2430.000000,1543.915527 2430.000000,1707.830933 2430.000000,1872.000000 
	C2028.624878,1872.000000 1627.249756,1872.000000 1224.937256,1872.000000 
	C1217.774414,1866.587769 1222.165039,1864.547974 1226.943359,1862.423950 
	C1251.921021,1851.321045 1277.419189,1841.472900 1302.734497,1831.199951 
	C1464.532959,1765.542480 1626.148438,1699.435425 1787.957153,1633.802856 
	C1883.374390,1595.099731 1978.691895,1556.149292 2074.060059,1517.324341 
	C2187.945801,1470.960693 2301.798828,1424.516602 2415.731934,1378.268799 
	C2420.238281,1376.439575 2424.771240,1373.471069 2429.455078,1379.455444 
z"/>
<path fill="#076532" opacity="1.000000" stroke="none" 
	d="
M2430.000000,1379.143066 
	C2426.504395,1378.601318 2423.512207,1380.345215 2420.469482,1381.583740 
	C2324.839355,1420.507202 2229.221924,1459.461670 2133.586426,1498.372681 
	C2061.397217,1527.744385 1989.167725,1557.016968 1916.989136,1586.414307 
	C1791.756592,1637.419800 1666.560059,1688.513672 1541.328125,1739.520386 
	C1459.282715,1772.937256 1377.201904,1806.267944 1295.135376,1839.632935 
	C1275.081421,1847.786133 1254.988647,1855.845215 1234.990845,1864.133911 
	C1231.104126,1865.744995 1226.551025,1866.492920 1224.016113,1871.275269 
	C1219.916626,1872.000000 1215.833374,1872.000000 1210.875000,1872.000000 
	C1209.066895,1866.452271 1203.847656,1866.377441 1200.180542,1864.832886 
	C1181.151611,1856.818237 1161.967285,1849.172241 1142.842773,1841.384155 
	C984.910400,1777.069092 826.987488,1712.730957 669.044678,1648.441650 
	C578.660645,1611.651611 488.230194,1574.975830 397.846832,1538.184326 
	C270.755219,1486.450073 143.690155,1434.650879 16.601019,1382.910645 
	C12.292980,1381.156738 7.848011,1379.739136 2.733442,1378.082397 
	C2.000000,1376.500000 2.000000,1375.000000 2.000000,1372.750000 
	C6.543925,1371.054810 6.709043,1366.796387 8.146243,1363.628906 
	C12.787189,1353.400757 12.766074,1353.239258 23.547007,1357.606689 
	C60.597046,1372.615967 97.609085,1387.719238 134.632568,1402.794189 
	C301.861084,1470.884766 469.082001,1538.993896 636.318542,1607.064697 
	C745.547974,1651.524536 854.809631,1695.905029 964.037415,1740.368896 
	C1043.334229,1772.648682 1122.658203,1804.863159 1201.806030,1837.504883 
	C1212.066040,1841.736084 1220.846802,1842.006592 1231.268066,1837.728516 
	C1348.988403,1789.403320 1466.878296,1741.491333 1584.734253,1693.496216 
	C1663.718262,1661.331299 1742.727295,1629.227539 1821.712646,1597.066040 
	C1939.881714,1548.949585 2058.034180,1500.791992 2176.204834,1452.679810 
	C2253.955566,1421.024170 2331.726318,1389.417480 2409.488037,1357.789429 
	C2409.796875,1357.664185 2410.111084,1357.553223 2410.421387,1357.431763 
	C2420.528076,1353.479248 2420.526367,1353.480225 2425.199219,1363.054321 
	C2426.067139,1364.832764 2426.663574,1366.809814 2429.302734,1367.911621 
	C2430.000000,1371.428711 2430.000000,1374.857422 2430.000000,1379.143066 
z"/>
<path fill="#076432" opacity="1.000000" stroke="none" 
	d="
M1501.143066,1.999999 
	C1500.325806,4.483517 1498.632568,6.954328 1496.980835,9.452697 
	C1487.918091,23.160070 1487.856934,39.161999 1496.802856,52.685398 
	C1505.573242,65.943367 1520.827881,72.290977 1536.780518,69.357574 
	C1539.661011,68.827904 1542.403320,67.157944 1546.047729,68.350410 
	C1546.143799,72.356102 1543.223633,74.707756 1540.792603,77.100060 
	C1523.614136,94.005424 1493.881836,93.653305 1477.714722,76.446884 
	C1460.649048,58.284203 1461.739014,29.516722 1479.976929,12.628741 
	C1483.349976,9.505410 1488.095581,7.906117 1490.110474,2.707459 
	C1493.428711,2.000000 1496.857422,2.000000 1501.143066,1.999999 
z"/>
<path fill="#076533" opacity="1.000000" stroke="none" 
	d="
M692.786926,1515.979980 
	C687.275879,1505.468872 681.863953,1495.539062 676.735718,1485.464844 
	C645.576233,1424.254272 626.111328,1359.595825 619.472595,1291.142700 
	C610.866089,1202.401123 623.657043,1117.263550 661.805054,1036.270508 
	C695.209656,965.348022 742.814941,905.730469 804.692932,857.764404 
	C872.222778,805.417114 948.587646,773.615662 1033.251343,761.714417 
	C1096.456909,752.829590 1158.862671,756.261719 1220.238647,774.002258 
	C1281.122192,791.600464 1335.055908,821.829468 1381.284302,865.286560 
	C1449.497559,929.410522 1492.528687,1007.548706 1508.790405,1099.785645 
	C1519.777954,1162.107544 1517.138794,1224.110840 1496.366577,1284.249878 
	C1466.138550,1371.765137 1410.129028,1437.919922 1328.186523,1481.659058 
	C1291.271973,1501.363281 1251.750610,1512.639282 1210.318115,1517.390381 
	C1197.087646,1518.907349 1183.755615,1519.432861 1169.559570,1519.041382 
	C1167.580566,1518.947021 1167.045288,1518.342407 1167.695557,1516.780151 
	C1230.146240,1510.581299 1286.211548,1489.348267 1336.307983,1452.729004 
	C1380.671631,1420.300415 1415.170166,1379.345459 1439.429810,1329.999634 
	C1467.039185,1273.839722 1477.043579,1214.537231 1470.563599,1152.311401 
	C1462.053223,1070.589844 1428.831055,1000.026611 1374.223389,939.294312 
	C1309.683228,867.515869 1228.703979,827.138611 1133.159058,816.442444 
	C1058.076904,808.037109 985.719971,819.661133 916.428101,849.974243 
	C868.973267,870.734375 826.159729,898.445435 788.619873,934.280151 
	C727.195129,992.914856 684.289368,1062.713501 661.604919,1144.651001 
	C648.064026,1193.561768 643.544617,1243.554810 646.005737,1294.128906 
	C649.818298,1372.476196 670.493958,1446.375854 705.602478,1516.406372 
	C708.952637,1523.088745 713.376343,1527.326294 720.304382,1530.218628 
	C796.866516,1562.181519 873.489807,1593.987915 950.509827,1624.840698 
	C1001.570129,1645.294312 1053.304810,1663.738770 1106.020264,1679.459839 
	C1113.974487,1681.831909 1121.652832,1685.179932 1129.361938,1688.314331 
	C1161.862671,1701.528931 1185.115356,1724.117188 1198.229126,1756.817505 
	C1202.443726,1767.327148 1206.293579,1777.983276 1210.523193,1788.486694 
	C1211.711060,1791.436768 1211.536499,1795.225342 1215.032715,1797.060181 
	C1218.449219,1795.151245 1218.406372,1791.406372 1219.488037,1788.417603 
	C1224.251709,1775.254761 1229.338989,1762.253174 1235.151245,1749.495483 
	C1247.955933,1721.388550 1269.249023,1702.344360 1297.013794,1689.829956 
	C1311.934937,1683.104614 1327.293335,1677.464355 1343.014038,1673.145508 
	C1392.939697,1659.429565 1440.853027,1640.144043 1488.799683,1620.998901 
	C1637.953125,1561.441895 1785.596069,1498.263794 1933.150635,1434.884644 
	C2006.312988,1403.459229 2079.333008,1371.702515 2152.419189,1340.099731 
	C2154.560303,1339.173706 2156.771240,1338.394775 2158.860596,1337.366455 
	C2162.445557,1335.602295 2165.200195,1336.220581 2167.343018,1339.716553 
	C2174.614502,1351.578125 2186.252686,1357.208496 2198.827637,1361.227295 
	C2216.599365,1366.907104 2234.480469,1372.245239 2252.292480,1377.800659 
	C2256.672119,1379.166748 2261.104004,1380.528809 2265.268066,1383.765015 
	C2262.893066,1388.046875 2258.716064,1388.647217 2255.233398,1390.053711 
	C2201.785645,1411.638794 2148.310547,1433.155884 2094.837646,1454.678589 
	C1955.131836,1510.909668 1815.427734,1567.144775 1675.716064,1623.361084 
	C1568.764771,1666.395264 1461.796875,1709.388550 1354.848755,1752.430542 
	C1311.262817,1769.972168 1267.672729,1787.504517 1224.182373,1805.280640 
	C1217.927612,1807.836914 1212.554688,1808.035522 1206.140381,1805.446777 
	C1059.064331,1746.086914 911.903687,1686.936279 764.763855,1627.734131 
	C683.783142,1595.151245 602.806213,1562.558716 521.837524,1529.945923 
	C405.938812,1483.263916 290.046661,1436.565674 174.169357,1389.830688 
	C170.932510,1388.525146 167.120026,1387.918457 164.829025,1384.015259 
	C168.215881,1380.629150 172.417679,1379.504639 176.417175,1378.238647 
	C190.074890,1373.914429 203.779373,1369.735718 217.494812,1365.596924 
	C226.434387,1362.899292 235.366058,1360.185303 243.824356,1356.176270 
	C250.871399,1352.835938 256.701416,1348.016846 261.371490,1341.700073 
	C266.075714,1335.337036 266.258453,1335.282715 273.558136,1338.413330 
	C294.992554,1347.605957 316.383728,1356.899658 337.773407,1366.196289 
	C443.187592,1412.012817 548.755493,1457.471313 654.630432,1502.214233 
	C666.293579,1507.143188 677.993469,1511.984863 690.392700,1517.063232 
	C691.585876,1516.607300 692.221741,1516.352173 692.786926,1515.979980 
z"/>
<path fill="#076533" opacity="1.000000" stroke="none" 
	d="
M1612.306152,654.000000 
	C1612.305664,558.679260 1612.304321,464.358490 1612.304443,370.037720 
	C1612.304565,354.015076 1611.483032,338.060883 1607.784302,322.400330 
	C1603.271362,303.292664 1595.343628,285.829285 1582.060669,271.143982 
	C1564.961426,252.239426 1543.406494,241.817749 1518.217773,239.484253 
	C1483.913330,236.306259 1453.364258,244.704514 1429.300293,270.834076 
	C1414.654907,286.736481 1406.490356,305.886139 1402.297729,326.844330 
	C1399.547485,340.592651 1398.438721,354.563110 1398.419800,368.547272 
	C1398.387085,392.517853 1398.584229,416.476349 1399.412476,440.458557 
	C1400.538818,473.062103 1397.023193,505.630341 1396.043579,538.235046 
	C1395.413818,559.198547 1394.627197,580.160400 1393.612671,601.108521 
	C1391.874146,637.006714 1389.888916,672.892883 1388.034302,708.785461 
	C1387.209839,724.740784 1386.480469,740.700989 1385.622314,756.654358 
	C1385.526245,758.441101 1386.400391,760.724243 1383.906372,761.822327 
	C1381.638062,760.540710 1382.444580,758.331299 1382.355469,756.511536 
	C1380.730713,723.263123 1379.388306,689.999268 1377.515381,656.765198 
	C1375.904663,628.182007 1374.734985,599.584961 1373.460938,570.988098 
	C1372.068237,539.731201 1371.011475,508.455261 1369.349854,477.220337 
	C1368.410278,459.556213 1367.747192,441.892792 1368.525757,424.305878 
	C1369.705200,397.660645 1368.380859,370.966156 1369.960327,344.403809 
	C1372.535522,301.097565 1387.721680,263.195709 1422.906616,235.561920 
	C1442.833618,219.911423 1465.867798,211.655655 1491.051270,209.591446 
	C1519.542725,207.256119 1546.950928,211.125412 1572.278931,225.219452 
	C1606.385498,244.198349 1626.177612,273.969666 1635.939697,310.992462 
	C1639.942261,326.172089 1641.747803,341.678741 1641.744019,357.450378 
	C1641.675903,644.412170 1641.699463,931.373901 1641.684448,1218.335693 
	C1641.683472,1238.319336 1643.028931,1258.292725 1641.728516,1278.288940 
	C1639.871582,1306.844849 1638.217285,1335.414551 1636.584229,1363.984375 
	C1635.520264,1382.596680 1634.811279,1401.230103 1633.651367,1419.835815 
	C1631.873657,1448.353271 1629.844360,1476.854858 1626.240234,1505.403076 
	C1625.386353,1493.341797 1624.475220,1481.284302 1623.689209,1469.218506 
	C1621.266357,1432.028931 1618.779175,1394.842896 1616.542725,1357.641968 
	C1615.344116,1337.705078 1614.792114,1317.729492 1613.629395,1297.790161 
	C1610.270630,1240.190430 1612.597900,1182.550293 1612.446655,1124.934814 
	C1612.035522,968.290833 1612.305786,811.645081 1612.306152,654.000000 
z"/>
<path fill="#076533" opacity="1.000000" stroke="none" 
	d="
M1131.793701,678.243286 
	C1142.771851,691.910339 1146.438843,706.390320 1141.064575,722.696289 
	C1135.085449,740.837830 1117.303955,753.267029 1098.281494,752.580078 
	C1078.390625,751.861633 1061.067993,739.310486 1056.945435,720.868347 
	C1052.654419,701.672668 1056.442261,684.658508 1073.793945,672.224854 
	C1089.507568,660.964966 1109.974976,661.427673 1126.027954,673.159912 
	C1127.900513,674.528442 1129.574097,676.169067 1131.793701,678.243286 
z"/>
<path fill="#076533" opacity="1.000000" stroke="none" 
	d="
M1515.631348,195.859467 
	C1490.861938,201.129959 1469.052368,186.085983 1463.258789,165.792343 
	C1456.552490,142.301895 1468.928711,117.396904 1492.041382,110.912254 
	C1518.474487,103.495934 1539.403198,117.066994 1547.113403,137.900665 
	C1555.478271,160.503204 1543.821411,185.415436 1521.152710,194.169525 
	C1519.606689,194.766617 1518.001221,195.209473 1515.631348,195.859467 
z"/>
<path fill="#076432" opacity="1.000000" stroke="none" 
	d="
M1097.155518,641.056763 
	C1058.545288,634.401184 1050.665527,592.692017 1068.586914,569.994507 
	C1074.632812,562.337341 1082.109863,556.727234 1094.301147,555.330322 
	C1082.261230,572.891663 1079.377930,589.930664 1091.956177,606.434143 
	C1104.121338,622.395447 1120.822021,625.069580 1139.682007,619.079529 
	C1135.303711,633.809021 1117.121826,643.071106 1097.155518,641.056763 
z"/>
<path fill="#043219" opacity="1.000000" stroke="none" 
	d="
M1167.615479,1516.286865 
	C1168.395996,1516.939453 1168.502319,1517.535645 1168.658203,1518.581177 
	C1166.761963,1519.212891 1164.820435,1519.521606 1162.879639,1519.517822 
	C1162.017700,1519.516235 1161.156982,1518.884033 1159.709473,1518.302734 
	C1161.873169,1515.461548 1164.576538,1516.383545 1167.615479,1516.286865 
z"/>
<path fill="#000000" opacity="1.000000" stroke="none" 
	d="
M692.191284,1515.910889 
	C693.084412,1516.426025 692.981812,1517.137695 691.447266,1517.338135 
	C691.347961,1516.958496 691.586853,1516.657471 692.191284,1515.910889 
z"/>
</svg>